<svg xmlns="http://www.w3.org/2000/svg" viewBox="0 0 24 24" id="google-chrome"><path fill="#303c42" d="M12 0C5.383 0 0 5.383 0 12s5.383 12 12 12 12-5.383 12-12S18.617 0 12 0z"></path><path fill="#f44336" d="M12 1c4.264 0 7.961 2.444 9.786 6H12c-2.565 0-4.66 1.949-4.943 4.439L3.418 5.137C5.436 2.619 8.53 1 12 1z"></path><circle cx="12" cy="12" r="4" fill="#03a9f4"></circle><path fill="#fff" d="M8.391 12.391c0-2.206 1.794-4 4-4 1.003 0 1.91.384 2.613.996A3.973 3.973 0 0 0 12 8c-2.206 0-4 1.794-4 4 0 1.202.544 2.27 1.387 3.004a3.967 3.967 0 0 1-.996-2.613z" opacity=".2"></path><path fill="#8bc34a" d="M1 12c0-2.203.657-4.252 1.777-5.975L7.67 14.5l.02-.011C8.555 15.982 10.153 17 12 17a4.96 4.96 0 0 0 1.967-.406l-3.619 6.268C5.066 22.061 1 17.503 1 12z"></path><path fill="#ffeb3b" d="M12 23c-.189 0-.374-.019-.561-.028L16.33 14.5l-.02-.011A4.94 4.94 0 0 0 17 12c0-1.641-.806-3.088-2.031-4h7.267c.487 1.242.764 2.588.764 4 0 6.065-4.935 11-11 11z"></path><linearGradient id="a" x1="16.786" x2="24.249" y1="6.183" y2="13.647" gradientUnits="userSpaceOnUse"><stop offset="0" stop-opacity=".1"></stop><stop offset="1" stop-opacity="0"></stop></linearGradient><path fill="url(#a)" d="m15.981 9.012 6.452 6.452C22.796 14.373 23 13.211 23 12c0-1.412-.277-2.758-.764-4h-7.267c.385.286.722.63 1.012 1.012z"></path><linearGradient id="b" x1="2.798" x2="7.774" y1="5.745" y2="10.722" gradientUnits="userSpaceOnUse"><stop offset="0" stop-opacity=".1"></stop><stop offset="1" stop-opacity="0"></stop></linearGradient><path fill="url(#b)" d="M3.515 5.028c-.031.037-.067.071-.097.109l3.639 6.303a4.995 4.995 0 0 1 .762-2.107L3.515 5.028z"></path><linearGradient id="c" x1="1.125" x2="22.875" y1="6.929" y2="17.071" gradientUnits="userSpaceOnUse"><stop offset="0" stop-color="#fff" stop-opacity=".2"></stop><stop offset="1" stop-color="#fff" stop-opacity="0"></stop></linearGradient><path fill="url(#c)" d="M12 0C5.383 0 0 5.383 0 12s5.383 12 12 12 12-5.383 12-12S18.617 0 12 0z"></path></svg>