<svg xmlns="http://www.w3.org/2000/svg" height="48" viewBox="0 96 960 960" width="48"><path d="M120 936V700q44-5 75.5-34.5T227 593q0-43-31.5-72.5T120 486V250h237q11-40 39.5-67t68.5-27q40 0 68.5 27t39.5 67h233v233q40 11 65.5 41.5T897 595q0 40-25.5 67T806 700v236H570q-5-48-35.5-77.5T463 829q-41 0-71.5 29.5T356 936H120Zm60-60h130q25-61 69.888-84 44.888-23 83-23T546 792q45 23 70 84h130V641h45q20 0 33-13t13-33q0-20-13-33t-33-13h-45V310H511v-48q0-20-13-33t-33-13q-20 0-33 13t-13 33v48H180v130q48.15 17.817 77.575 59.686Q287 541.555 287 593.223 287 644 257.5 686T180 746v130Zm329-330Z"/></svg>