<?xml version="1.0" encoding="utf-8"?>
<!-- Svg Vector Icons : http://www.onlinewebfonts.com/icon -->
<!DOCTYPE svg PUBLIC "-//W3C//DTD SVG 1.1//EN" "http://www.w3.org/Graphics/SVG/1.1/DTD/svg11.dtd">
<svg version="1.1" xmlns="http://www.w3.org/2000/svg" xmlns:xlink="http://www.w3.org/1999/xlink" x="0px" y="0px" viewBox="0 0 256 256" enable-background="new 0 0 256 256" xml:space="preserve">
<metadata> Svg Vector Icons : http://www.onlinewebfonts.com/icon </metadata>
<g><g><g><path fill="#000000" d="M64.5,10.7c-6.4,2.1-10.6,8.5-10.1,15.2c0.5,5.4,0.8,5.8,20.1,25.2L92.3,69H64.4c-31.4,0-31.6,0-38.2,3.3c-7.6,3.8-13.7,11.6-15.4,20c-1,4.8-1,125.5,0,130.4c1.8,8.4,7.8,16.2,15.4,20c7.1,3.5-0.1,3.3,101.8,3.3c101.9,0,94.7,0.2,101.8-3.3c7.6-3.8,13.7-11.6,15.4-20c1-4.8,1-125.5,0-130.4c-1.8-8.4-7.8-16.2-15.4-20c-6.6-3.2-6.9-3.3-38.2-3.3h-27.8l17.7-17.9c20.2-20.3,19.9-19.9,20-26.3c0-4.7-1-7.2-4.1-10.4c-3.1-3.2-5.6-4.1-10.4-4.1c-3.2,0-4.4,0.2-6.2,1.1c-1.8,0.9-7.6,6.4-27.5,26.3L128,62.8l-25.2-25.2C82.5,17.4,77.1,12.3,75.3,11.4C72.4,10.1,67.4,9.7,64.5,10.7z M198.8,99.4c3.1,1.9,2.9-2,2.9,58c0,60.1,0.2,56.2-2.9,58c-1.4,0.9-2.9,0.9-78.2,0.9c-75.3,0-76.7,0-78.2-0.9c-3.1-1.9-2.9,2-2.9-58c0-60.1-0.2-56.2,2.9-58c1.4-0.9,2.9-0.9,78.2-0.9C195.9,98.5,197.4,98.5,198.8,99.4z M226.7,99.1c4.7,2,5.9,8.2,2.2,11.8c-5.2,5.2-13.6,0.6-12.3-6.7C217.5,99.9,222.5,97.3,226.7,99.1z M226.7,128.6c4.7,2,5.9,8.2,2.2,11.8c-3,3-7.2,3-10.2,0C213,134.8,219.3,125.5,226.7,128.6z M226.7,158.1c4.7,2,5.9,8.2,2.2,11.8c-3,3-7.2,3-10.2,0C213,164.2,219.3,154.9,226.7,158.1z"/></g></g></g>
</svg>